<svg width="41" height="41" viewBox="0 0 41 41" fill="none" xmlns="http://www.w3.org/2000/svg">
<path d="M20.7363 1.67627C31.2798 1.67627 39.8407 10.2372 39.8407 20.7807C39.8407 31.3242 31.2798 39.8851 20.7363 39.8851C10.1927 39.8851 1.63184 31.3242 1.63184 20.7807C1.63184 10.2372 10.1927 1.67627 20.7363 1.67627Z" stroke="white" stroke-width="1.50598" stroke-miterlimit="10"/>
<path d="M26.0448 14.3364C25.3958 14.3364 24.8701 14.8621 24.8701 15.5111C24.8701 16.1602 25.3958 16.6858 26.0448 16.6858C26.6939 16.6858 27.2195 16.1602 27.2195 15.5111C27.2195 14.8621 26.6939 14.3364 26.0448 14.3364Z" fill="white"/>
<path d="M20.818 15.8433C18.095 15.8433 15.8809 18.0574 15.8809 20.7804C15.8809 23.5033 18.0967 25.7175 20.818 25.7175C23.5392 25.7175 25.7551 23.5016 25.7551 20.7804C25.7551 18.0591 23.5392 15.8433 20.818 15.8433ZM20.818 23.9444C19.0737 23.9444 17.6556 22.5263 17.6556 20.7821C17.6556 19.0378 19.0737 17.6197 20.818 17.6197C22.5623 17.6197 23.9803 19.0378 23.9803 20.7821C23.9803 22.5263 22.5623 23.9444 20.818 23.9444Z" fill="white"/>
<path d="M24.738 30.8076H16.7332C13.4119 30.8076 10.7109 28.1066 10.7109 24.7853V16.7805C10.7109 13.4593 13.4119 10.7583 16.7332 10.7583H24.738C28.0592 10.7583 30.7602 13.4593 30.7602 16.7805V24.7853C30.7602 28.1066 28.0575 30.8076 24.738 30.8076ZM16.7332 12.6429C14.4531 12.6429 12.5972 14.4987 12.5972 16.7788V24.7836C12.5972 27.0637 14.4531 28.9196 16.7332 28.9196H24.738C27.0181 28.9196 28.8739 27.0637 28.8739 24.7836V16.7788C28.8739 14.4987 27.0181 12.6429 24.738 12.6429H16.7332Z" fill="white"/>
</svg>
