<svg width="65" height="65" viewBox="0 0 65 65" fill="none" xmlns="http://www.w3.org/2000/svg">
<path d="M31.9505 0.76762C7.57987 1.27629 -7.21735 28.4408 5.6648 49.3039C18.5242 70.1328 49.1747 69.6716 60.8661 48.0398C72.5689 26.3871 56.3363 0.257052 31.9505 0.76762ZM6.19191 26.9812C6.26776 26.6491 6.33602 26.2505 6.42893 25.9373C6.47443 25.7798 6.47823 25.5027 6.71524 25.7304C6.77592 25.7874 7.24805 26.9755 7.40353 27.2469C8.53361 29.2323 9.72436 31.191 10.8355 33.1896C12.5003 34.7327 15.2477 34.6986 16.5409 36.7143C18.0596 39.083 16.4442 42.192 17.6235 44.5816C18.3573 46.0696 20.0069 46.5422 21.1294 47.607C22.8625 49.2526 22.5819 51.7257 22.9213 53.9123C23.1545 55.4212 23.5185 56.9017 23.7518 58.4068C11.0554 54.0451 3.15625 40.2104 6.19191 26.9812ZM56.1828 23.6046C54.6545 23.6141 53.3538 20.9816 51.1979 20.7728C50.1588 20.6722 46.3951 21.3308 45.4318 21.7901C44.1482 22.4032 43.5907 23.7906 42.7659 24.8042C42.1383 25.5729 41.3135 26.2296 40.7788 27.0761C38.1451 31.248 42.3014 35.8621 46.6738 35.8279C48.0485 35.8184 50.3333 34.9169 51.5278 35.5033C52.4038 35.9323 52.4474 36.8927 52.5441 37.7544C52.8608 40.5843 53.3841 43.2492 53.6989 46.1171C53.7728 46.7966 54.336 49.078 54.2374 49.4899C54.1122 50.0099 51.7553 52.3787 51.2188 52.8702C45.0507 58.496 36.56 60.9274 28.2929 59.686C28.2834 57.9399 28.9262 56.0893 29.7946 54.5823C32.2065 50.3971 37.1307 49.3058 37.5232 43.8489C37.9233 38.2896 33.7708 37.9575 30.2042 35.5356C29.1102 34.7916 27.6445 33.0929 26.4196 32.7873C25.6099 32.5861 24.7946 32.7569 23.9793 32.6715C22.6672 32.5348 21.9049 31.7358 20.5265 32.233C19.5993 32.5671 18.8579 33.4819 17.7923 33.6262C15.3065 33.9621 12.0395 29.2266 14.878 27.9967C15.9398 27.5373 17.6368 27.3665 18.6873 27.8828C19.5272 28.2965 20.098 29.4885 21.1256 29.4335C22.5439 29.3556 21.4878 26.5902 21.4764 25.7893C21.4461 23.6654 24.7738 23.2307 24.7301 20.9816C24.7074 19.801 23.8428 19.2677 24.7681 18.0055C25.0866 17.5708 26.2755 16.7034 26.7779 16.4643C28.0881 15.8436 31.9657 15.5779 31.8519 13.7216C31.7912 12.7252 29.4003 10.1059 28.3536 9.95975C26.9258 9.76235 26.2812 11.3073 25.3047 12.0039C24.2675 12.7441 21.6812 13.6514 21.0214 12.0476C20.2648 10.2103 24.1689 9.93128 22.3373 7.6062C22.3467 7.48852 23.6077 6.97795 23.8257 6.98365C24.1613 6.99124 24.6145 7.37654 25.1056 7.40121C25.7503 7.43348 26.2831 7.14308 27.0529 7.28733C28.4996 7.55685 29.0912 9.75286 31.4765 9.37515C33.3385 9.07906 33.4541 6.86217 33.1166 5.40639C38.3461 5.49749 43.3272 7.06146 47.7356 9.8136L46.6681 10.235C44.9616 11.1156 43.4845 13.5356 46.3818 13.7957C47.8835 13.9304 49.408 13.7805 49.1198 11.9052C49.0932 11.7325 48.5585 10.6449 48.9415 10.6658C49.0762 10.6734 51.0083 12.3 50.8566 12.5069C49.5047 12.9757 48.7462 15.1831 47.728 15.8417C46.6453 16.5421 44.8535 16.1055 45.045 18.1042C45.2972 20.7576 48.5964 20.9265 50.1512 19.262C51.0765 18.2731 51.251 16.8097 53.0219 17.0887C55.0546 17.4095 54.3265 19.6454 54.9256 20.0496C55.6443 20.5355 56.3515 19.3208 56.6795 19.5353C56.7971 19.6131 57.9423 21.9325 57.9234 22.0729C57.8608 22.5057 56.7023 23.5913 56.1809 23.5951L56.1828 23.6046Z" fill="#FEFEFE"/>
</svg>
