<svg width="41" height="41" viewBox="0 0 41 41" fill="none" xmlns="http://www.w3.org/2000/svg">
<path d="M39.8846 20.7807C39.8846 10.2296 31.3313 1.67627 20.7802 1.67627C10.2291 1.67627 1.67578 10.2296 1.67578 20.7807C1.67578 31.3318 10.2291 39.8851 20.7802 39.8851C31.3313 39.8851 39.8846 31.3318 39.8846 20.7807Z" stroke="white" stroke-width="1.50598" stroke-miterlimit="10"/>
<path d="M16.0716 16.5215H12.1182V29.2944H16.0716V16.5215Z" fill="white"/>
<path d="M14.0768 14.8497C15.3681 14.8497 16.4144 13.7934 16.4144 12.4919C16.4144 11.1904 15.3681 10.1357 14.0768 10.1357C12.7855 10.1357 11.7393 11.1904 11.7393 12.4919C11.7393 13.7934 12.7855 14.8497 14.0768 14.8497Z" fill="white"/>
<path d="M22.3924 22.5906C22.3924 20.7956 23.2189 19.7257 24.801 19.7257C26.2546 19.7257 26.9543 20.7534 26.9543 22.5906V29.2957H30.8891V21.208C30.8891 17.787 28.9504 16.1323 26.241 16.1323C23.5316 16.1323 22.3924 18.2434 22.3924 18.2434V16.5228H18.5996V29.2957H22.3924V22.5906Z" fill="white"/>
</svg>
