<svg width="68" height="68" viewBox="0 0 68 68" fill="none" xmlns="http://www.w3.org/2000/svg">
<path d="M34.1098 0.759766C27.4643 0.759766 20.9681 2.73037 15.4426 6.42239C9.91713 10.1144 5.61053 15.362 3.06743 21.5016C0.524324 27.6412 -0.141068 34.397 1.1554 40.9148C2.45186 47.4326 5.65195 53.4195 10.351 58.1186C15.05 62.8176 21.037 66.0177 27.5547 67.3142C34.0725 68.6106 40.8283 67.9452 46.9679 65.4021C53.1075 62.859 58.3551 58.5524 62.0472 53.0269C65.7392 47.5014 67.7098 41.0052 67.7098 34.3598C67.7098 29.9474 66.8407 25.5781 65.1521 21.5016C63.4636 17.4251 60.9886 13.721 57.8686 10.601C54.7485 7.48093 51.0445 5.00597 46.9679 3.31741C42.8914 1.62886 38.5222 0.759766 34.1098 0.759766ZM27.3898 49.4798V19.2398L47.5498 34.3598L27.3898 49.4798Z" fill="white"/>
</svg>
