<svg width="99" height="99" viewBox="0 0 99 99" fill="none" xmlns="http://www.w3.org/2000/svg">
<g clip-path="url(#clip0_1031_791)">
<path d="M49.5811 86.0799C69.7843 86.0799 86.1623 69.702 86.1623 49.4987C86.1623 29.2955 69.7843 12.9176 49.5811 12.9176C29.3779 12.9176 13 29.2955 13 49.4987C13 69.702 29.3779 86.0799 49.5811 86.0799Z" stroke="white" stroke-miterlimit="10"/>
<path d="M49.4995 92.1644C73.0631 92.1644 92.1651 73.0624 92.1651 49.4988C92.1651 25.9353 73.0631 6.83325 49.4995 6.83325C25.936 6.83325 6.83398 25.9353 6.83398 49.4988C6.83398 73.0624 25.936 92.1644 49.4995 92.1644Z" stroke="white" stroke-opacity="0.5" stroke-width="0.5" stroke-miterlimit="10"/>
<path d="M49.5 0.25C76.7 0.25 98.75 22.3 98.75 49.5C98.75 76.7 76.7 98.75 49.5 98.75C22.3 98.75 0.25 76.7 0.25 49.5C0.25 22.3 22.3 0.25 49.5 0.25Z" stroke="white" stroke-opacity="0.2" stroke-width="0.5" stroke-miterlimit="10"/>
<path d="M45.5714 32H40.6429C40.2071 32 39.7893 32.1772 39.4812 32.4926C39.1731 32.808 39 33.2358 39 33.6818V67.3182C39 67.7642 39.1731 68.192 39.4812 68.5074C39.7893 68.8228 40.2071 69 40.6429 69H45.5714C46.0071 69 46.425 68.8228 46.7331 68.5074C47.0412 68.192 47.2143 67.7642 47.2143 67.3182V33.6818C47.2143 33.2358 47.0412 32.808 46.7331 32.4926C46.425 32.1772 46.0071 32 45.5714 32ZM60.3571 32H55.4286C54.9929 32 54.575 32.1772 54.2669 32.4926C53.9588 32.808 53.7857 33.2358 53.7857 33.6818V67.3182C53.7857 67.7642 53.9588 68.192 54.2669 68.5074C54.575 68.8228 54.9929 69 55.4286 69H60.3571C60.7929 69 61.2107 68.8228 61.5188 68.5074C61.8269 68.192 62 67.7642 62 67.3182V33.6818C62 33.2358 61.8269 32.808 61.5188 32.4926C61.2107 32.1772 60.7929 32 60.3571 32Z" fill="white"/>
</g>
<defs>
<clipPath id="clip0_1031_791">
<rect width="99" height="99" fill="white"/>
</clipPath>
</defs>
</svg>
