<svg width="41" height="40" viewBox="0 0 41 40" fill="none" xmlns="http://www.w3.org/2000/svg">
<path d="M39.8846 19.9892C39.8846 9.43811 31.3313 0.884766 20.7802 0.884766C10.2291 0.884766 1.67578 9.43811 1.67578 19.9892C1.67578 30.5403 10.2291 39.0936 20.7802 39.0936C31.3313 39.0936 39.8846 30.5403 39.8846 19.9892Z" stroke="white" stroke-width="1.50598" stroke-miterlimit="10"/>
<path d="M28.7626 26.514L22.5156 17.4393L21.8091 16.4134L17.3402 9.92128L16.97 9.38379H11.4785L12.8172 11.3292L18.7582 19.9611L19.4647 20.9871L24.2379 27.9237L24.6081 28.4612H30.0995L28.7609 26.5157L28.7626 26.514ZM25.2639 27.2189L20.3048 20.0135L19.5983 18.9876L13.8431 10.6261H16.3193L20.9741 17.3886L21.6806 18.4146L27.7417 27.2189H25.2655H25.2639Z" fill="white"/>
<path d="M19.5983 18.9878L20.3048 20.0138L19.4665 20.9873L13.0437 28.4614H11.46L18.7617 19.963L19.5983 18.9878Z" fill="white"/>
<path d="M29.4406 9.38379L22.5158 17.4393L21.6792 18.4146L20.9727 17.3886L21.811 16.4134L26.5013 10.954L27.8569 9.38379H29.4406Z" fill="white"/>
</svg>
