<svg width="41" height="40" viewBox="0 0 41 40" fill="none" xmlns="http://www.w3.org/2000/svg">
<path d="M20.2577 39.0936C9.70577 39.0936 1.15332 30.5395 1.15332 19.9892C1.15332 9.43722 9.70746 0.884766 20.2577 0.884766C30.8097 0.884766 39.3622 9.43891 39.3622 19.9892C39.3622 30.5412 30.808 39.0936 20.2577 39.0936Z" stroke="white" stroke-width="1.50598" stroke-miterlimit="10"/>
<path d="M30.9045 14.6059C30.6493 13.6442 29.8955 12.8853 28.9405 12.6283C27.208 12.1602 20.2579 12.1602 20.2579 12.1602C20.2579 12.1602 13.3078 12.1602 11.5753 12.6283C10.6187 12.8853 9.86651 13.6442 9.61129 14.6059C9.14648 16.3502 9.14648 19.9892 9.14648 19.9892C9.14648 19.9892 9.14648 23.6282 9.61129 25.3725C9.86651 26.3342 10.6204 27.0931 11.5753 27.3501C13.3078 27.8182 20.2579 27.8182 20.2579 27.8182C20.2579 27.8182 27.208 27.8182 28.9405 27.3501C29.8972 27.0931 30.6493 26.3342 30.9045 25.3725C31.3694 23.6282 31.3694 19.9892 31.3694 19.9892C31.3694 19.9892 31.3694 16.3502 30.9045 14.6059ZM17.9846 23.2936V16.6848L23.7921 19.9892L17.9846 23.2936Z" fill="white"/>
</svg>
